<svg xmlns="http://www.w3.org/2000/svg" viewBox="0 0 24 24">
  <path fill="currentColor" fill-rule="evenodd" d="M20.5 9.5H20v-2a1 1 0 0 0-1-1h-6.5V4.917a1.5 1.5 0 1 0-1 0V6.5H5a1 1 0 0 0-1 1v2h-.5a1 1 0 0 0-1 1v4a1 1 0 0 0 1 1H4V18a1 1 0 0 0 1 1h9.625L18 22v-3h1a1 1 0 0 0 1-1v-2.5h.5a1 1 0 0 0 1-1v-4a1 1 0 0 0-1-1M6 14.494v-3.488c0-.832.674-1.506 1.506-1.506h8.488c.832 0 1.506.674 1.506 1.506v3.488c0 .832-.674 1.506-1.506 1.506H7.506A1.506 1.506 0 0 1 6 14.494m4-1.744a1.25 1.25 0 1 1-2.5 0 1.25 1.25 0 0 1 2.5 0m6 0a1.25 1.25 0 1 1-2.5 0 1.25 1.25 0 0 1 2.5 0"/>
</svg>
